<svg aria-roledescription="er" role="graphics-document document" viewBox="0 0 1212.8797607421875 772" style="max-width: 1212.88px; background-color: white;" xmlns:xlink="http://www.w3.org/1999/xlink" xmlns="http://www.w3.org/2000/svg" width="100%" id="my-svg"><style>#my-svg{font-family:"trebuchet ms",verdana,arial,sans-serif;font-size:16px;fill:#000000;}#my-svg .error-icon{fill:#552222;}#my-svg .error-text{fill:#552222;stroke:#552222;}#my-svg .edge-thickness-normal{stroke-width:2px;}#my-svg .edge-thickness-thick{stroke-width:3.5px;}#my-svg .edge-pattern-solid{stroke-dasharray:0;}#my-svg .edge-pattern-dashed{stroke-dasharray:3;}#my-svg .edge-pattern-dotted{stroke-dasharray:2;}#my-svg .marker{fill:#000000;stroke:#000000;}#my-svg .marker.cross{stroke:#000000;}#my-svg svg{font-family:"trebuchet ms",verdana,arial,sans-serif;font-size:16px;}#my-svg .entityBox{fill:#cde498;stroke:#13540c;}#my-svg .attributeBoxOdd{fill:#ffffff;stroke:#13540c;}#my-svg .attributeBoxEven{fill:#f2f2f2;stroke:#13540c;}#my-svg .relationshipLabelBox{fill:hsl(78.1578947368, 58.4615384615%, 84.5098039216%);opacity:0.7;background-color:hsl(78.1578947368, 58.4615384615%, 84.5098039216%);}#my-svg .relationshipLabelBox rect{opacity:0.5;}#my-svg .relationshipLine{stroke:#000000;}#my-svg .entityTitleText{text-anchor:middle;font-size:18px;fill:#000000;}#my-svg #MD_PARENT_START{fill:#f5f5f5!important;stroke:#000000!important;stroke-width:1;}#my-svg #MD_PARENT_END{fill:#f5f5f5!important;stroke:#000000!important;stroke-width:1;}#my-svg :root{--mermaid-font-family:"trebuchet ms",verdana,arial,sans-serif;}</style><g/><defs><marker orient="auto" markerHeight="240" markerWidth="190" refY="7" refX="0" id="MD_PARENT_START"><path d="M 18,7 L9,13 L1,7 L9,1 Z"/></marker></defs><defs><marker orient="auto" markerHeight="28" markerWidth="20" refY="7" refX="19" id="MD_PARENT_END"><path d="M 18,7 L9,13 L1,7 L9,1 Z"/></marker></defs><defs><marker orient="auto" markerHeight="18" markerWidth="18" refY="9" refX="0" id="ONLY_ONE_START"><path d="M9,0 L9,18 M15,0 L15,18" fill="none" stroke="gray"/></marker></defs><defs><marker orient="auto" markerHeight="18" markerWidth="18" refY="9" refX="18" id="ONLY_ONE_END"><path d="M3,0 L3,18 M9,0 L9,18" fill="none" stroke="gray"/></marker></defs><defs><marker orient="auto" markerHeight="18" markerWidth="30" refY="9" refX="0" id="ZERO_OR_ONE_START"><circle r="6" cy="9" cx="21" fill="white" stroke="gray"/><path d="M9,0 L9,18" fill="none" stroke="gray"/></marker></defs><defs><marker orient="auto" markerHeight="18" markerWidth="30" refY="9" refX="30" id="ZERO_OR_ONE_END"><circle r="6" cy="9" cx="9" fill="white" stroke="gray"/><path d="M21,0 L21,18" fill="none" stroke="gray"/></marker></defs><defs><marker orient="auto" markerHeight="36" markerWidth="45" refY="18" refX="18" id="ONE_OR_MORE_START"><path d="M0,18 Q 18,0 36,18 Q 18,36 0,18 M42,9 L42,27" fill="none" stroke="gray"/></marker></defs><defs><marker orient="auto" markerHeight="36" markerWidth="45" refY="18" refX="27" id="ONE_OR_MORE_END"><path d="M3,9 L3,27 M9,18 Q27,0 45,18 Q27,36 9,18" fill="none" stroke="gray"/></marker></defs><defs><marker orient="auto" markerHeight="36" markerWidth="57" refY="18" refX="18" id="ZERO_OR_MORE_START"><circle r="6" cy="18" cx="48" fill="white" stroke="gray"/><path d="M0,18 Q18,0 36,18 Q18,36 0,18" fill="none" stroke="gray"/></marker></defs><defs><marker orient="auto" markerHeight="36" markerWidth="57" refY="18" refX="39" id="ZERO_OR_MORE_END"><circle r="6" cy="18" cx="9" fill="white" stroke="gray"/><path d="M21,18 Q39,0 57,18 Q39,36 21,18" fill="none" stroke="gray"/></marker></defs><path style="stroke: gray; fill: none;" marker-start="url(#ZERO_OR_ONE_START)" marker-end="url(#ONLY_ONE_END)" d="M450.1259765625,104.85946113750217L389.3185221354167,120.54955094791848C328.5110677083333,136.2396407583348,206.89615885416666,167.6198203791674,146.08870442708334,195.14324352291703C85.28125,222.66666666666666,85.28125,246.33333333333334,85.28125,258.1666666666667L85.28125,270" class="er relationshipLine"/><path style="stroke: gray; fill: none;" marker-start="url(#ZERO_OR_MORE_START)" marker-end="url(#ZERO_OR_MORE_END)" d="M450.8248854058278,149L440.7209000899802,157.33333333333334C430.61691477413257,165.66666666666666,410.4089441424374,182.33333333333334,405.14161960297264,199C399.8742950635078,215.66666666666666,409.5476166162735,232.33333333333334,414.3842773926563,240.66666666666666L419.2209381690392,249" class="er relationshipLine"/><path style="stroke: gray; fill: none;" marker-start="url(#ZERO_OR_MORE_START)" marker-end="url(#ZERO_OR_MORE_END)" d="M450.1259765625,116.94360175605766L416.8653971354167,130.61966813004804C383.6048177083333,144.29573450403845,317.0836588541667,171.6478672520192,283.8230794270833,202.65726695934293C250.5625,233.66666666666666,250.5625,268.3333333333333,250.5625,303C250.5625,337.6666666666667,250.5625,372.3333333333333,250.5625,405.25C250.5625,438.1666666666667,250.5625,469.3333333333333,250.5625,500.5C250.5625,531.6666666666666,250.5625,562.8333333333334,343.3849105834961,593.5901303000147C436.2073211669922,624.3469272666961,621.8521423339844,654.693854533392,714.6745529174805,669.86731816674L807.4969635009766,685.040781800088" class="er relationshipLine"/><path style="stroke: gray; fill: none;" marker-start="url(#ZERO_OR_MORE_START)" marker-end="url(#ZERO_OR_MORE_END)" d="M585.8177372961586,149L593.1546889170462,157.33333333333334C600.4916405379339,165.66666666666666,615.1655437797091,182.33333333333334,622.5024954005968,208C629.8394470214844,233.66666666666666,629.8394470214844,268.3333333333333,629.8394470214844,303C629.8394470214844,337.6666666666667,629.8394470214844,372.3333333333333,629.8394470214844,405.25C629.8394470214844,438.1666666666667,629.8394470214844,469.3333333333333,629.8394470214844,500.5C629.8394470214844,531.6666666666666,629.8394470214844,562.8333333333334,659.4490331013998,590.4018122573028C689.0586191813151,617.9702911812723,748.2777913411459,641.9405823625447,777.8873774210612,653.9257279531807L807.4969635009766,665.9108735438169" class="er relationshipLine"/><path style="stroke: gray; fill: none;" marker-start="url(#ZERO_OR_ONE_START)" marker-end="url(#ONLY_ONE_END)" d="M938.6969874455378,644L946.7098079583584,635.6666666666666C954.7226284711788,627.3333333333334,970.74826949682,610.6666666666666,978.7610900096405,586.75C986.7739105224609,562.8333333333334,986.7739105224609,531.6666666666666,986.7739105224609,500.5C986.7739105224609,469.3333333333333,986.7739105224609,438.1666666666667,986.7739105224609,405.25C986.7739105224609,372.3333333333333,986.7739105224609,337.6666666666667,986.7739105224609,303C986.7739105224609,268.3333333333333,986.7739105224609,233.66666666666666,923.6338399251302,200.53949385122428C860.4937693277994,167.4123210357819,734.2136281331381,135.82464207156377,671.0735575358073,120.03080258945472L607.9334869384766,104.23696310734566" class="er relationshipLine"/><path style="stroke: gray; fill: none;" marker-start="url(#ZERO_OR_ONE_START)" marker-end="url(#ONLY_ONE_END)" d="M966.0508575439453,656.7759875488281L986.1713663736979,646.3133229573567C1006.2918752034506,635.8506583658854,1046.5328928629558,614.9253291829427,1033.320068359375,592.3324636670834C1020.1072438557943,569.7395981512241,953.4405771891276,545.4791963024483,920.1072438557943,533.3489953780603L886.7739105224609,521.2187944536723" class="er relationshipLine"/><path style="stroke: gray; fill: none;" marker-start="url(#ZERO_OR_ONE_START)" marker-end="url(#ZERO_OR_ONE_END)" d="M966.0508575439453,670.5173250325521L1002.8380330403646,657.7644375271267C1039.625208536784,645.0115500217014,1113.1995595296223,619.5057750108507,1149.9867350260417,591.169554172092C1186.773910522461,562.8333333333334,1186.773910522461,531.6666666666666,1186.773910522461,500.5C1186.773910522461,469.3333333333333,1186.773910522461,438.1666666666667,1186.773910522461,405.25C1186.773910522461,372.3333333333333,1186.773910522461,337.6666666666667,1186.773910522461,303C1186.773910522461,268.3333333333333,1186.773910522461,233.66666666666666,1090.3005065917969,199.53925881839862C993.8271026611328,165.41185097013062,800.8802947998047,131.82370194026123,704.4068908691406,115.02962742532652L607.9334869384766,98.23555291039185" class="er relationshipLine"/><path style="stroke: gray; fill: none;" marker-start="url(#ZERO_OR_MORE_START)" marker-end="url(#ZERO_OR_MORE_END)" d="M843.0835601888239,457L845.6207466193487,448.6666666666667C848.1579330498735,440.3333333333333,853.2323059109231,423.6666666666667,801.0249537163664,401.3700879617974C748.8176015218099,379.07350925692816,639.3285242716471,351.14701851385627,584.5839856465658,337.1837731423204L529.8394470214844,323.22052777078443" class="er relationshipLine"/><path style="stroke: gray; fill: none;" marker-start="url(#ZERO_OR_MORE_START)" marker-end="url(#ZERO_OR_MORE_END)" d="M829.8394470214844,544L829.8394470214844,552.3333333333334C829.8394470214844,560.6666666666666,829.8394470214844,577.3333333333334,834.4015033917549,594C838.9635597620254,610.6666666666666,848.0876725025665,627.3333333333334,852.649728872837,635.6666666666666L857.2117852431077,644" class="er relationshipLine"/><path style="stroke: gray; fill: none;" marker-start="url(#ZERO_OR_ONE_START)" marker-end="url(#ONLY_ONE_END)" d="M529.8394470214844,329.7910916240059L567.917318979899,342.6592430200049C605.9951909383138,355.527394416004,682.1509348551432,381.263697208002,726.6042763545125,402.46518193733436C771.0576178538821,423.6666666666667,783.8085569357914,440.3333333333333,790.1840264767461,448.6666666666667L796.5594960177009,457" class="er relationshipLine"/><path style="stroke: gray; fill: none;" marker-start="url(#ZERO_OR_ONE_START)" marker-end="url(#ONLY_ONE_END)" d="M413.42048571659967,357L407.6886933889145,365.3333333333333C401.9569010612292,373.6666666666667,390.4933164058587,390.3333333333333,391.35842269937734,408.75C392.223528992896,427.1666666666667,405.4173262353036,447.3333333333333,412.0142248565075,457.4166666666667L418.6111234777114,467.5" class="er relationshipLine"/><path style="stroke: gray; fill: none;" marker-start="url(#ZERO_OR_ONE_START)" marker-end="url(#ZERO_OR_ONE_END)" d="M471.14401509211615,249L474.3201748285538,240.66666666666666C477.4963345649915,232.33333333333334,483.8486540378669,215.66666666666666,489.85077871169506,199C495.85290338552323,182.33333333333334,501.50483326030434,165.66666666666666,504.33079819769483,157.33333333333334L507.15676313508544,149" class="er relationshipLine"/><path style="stroke: gray; fill: none;" marker-start="url(#ZERO_OR_MORE_START)" marker-end="url(#ZERO_OR_MORE_END)" d="M453.9052411247702,467.5L458.09265622905656,457.4166666666667C462.2800713333429,447.3333333333333,470.65490154191565,427.1666666666667,472.5612884610667,408.75C474.46767538021777,390.3333333333333,469.9056190099472,373.6666666666667,467.62459082481195,365.3333333333333L465.34356263967663,357" class="er relationshipLine"/><g transform="translate(20,270 )" id="entity-AccountType-f53183da-1ff7-5489-b965-7ab5cf15364f"><rect height="66" width="130.5625" y="0" x="0" class="er entityBox"/><text style="dominant-baseline: middle; text-anchor: middle; font-size: 12px;" transform="translate(65.28125,12)" y="0" x="0" id="text-entity-AccountType-f53183da-1ff7-5489-b965-7ab5cf15364f" class="er entityLabel">AccountType</text><rect height="21" width="65.28125" y="24" x="0" class="er attributeBoxOdd"/><text style="dominant-baseline: middle; font-size: 10.2px;" transform="translate(5,34.5)" y="0" x="0" id="text-entity-AccountType-f53183da-1ff7-5489-b965-7ab5cf15364f-attr-1-type" class="er entityLabel">STANDARD</text><rect height="21" width="65.28125" y="24" x="65.28125" class="er attributeBoxOdd"/><text style="dominant-baseline: middle; font-size: 10.2px;" transform="translate(70.28125,34.5)" y="0" x="0" id="text-entity-AccountType-f53183da-1ff7-5489-b965-7ab5cf15364f-attr-1-name" class="er entityLabel">STANDARD</text><rect height="21" width="65.28125" y="45" x="0" class="er attributeBoxEven"/><text style="dominant-baseline: middle; font-size: 10.2px;" transform="translate(5,55.5)" y="0" x="0" id="text-entity-AccountType-f53183da-1ff7-5489-b965-7ab5cf15364f-attr-2-type" class="er entityLabel">ADMIN</text><rect height="21" width="65.28125" y="45" x="65.28125" class="er attributeBoxEven"/><text style="dominant-baseline: middle; font-size: 10.2px;" transform="translate(70.28125,55.5)" y="0" x="0" id="text-entity-AccountType-f53183da-1ff7-5489-b965-7ab5cf15364f-attr-2-name" class="er entityLabel">ADMIN</text></g><g transform="translate(450.1259765625,20 )" id="entity-User-818c511a-4a32-5484-ba70-875d765a9175"><rect height="129" width="157.80751037597656" y="0" x="0" class="er entityBox"/><text style="dominant-baseline: middle; text-anchor: middle; font-size: 12px;" transform="translate(78.90375518798828,12)" y="0" x="0" id="text-entity-User-818c511a-4a32-5484-ba70-875d765a9175" class="er entityLabel">User</text><rect height="21" width="69.22999572753906" y="24" x="0" class="er attributeBoxOdd"/><text style="dominant-baseline: middle; font-size: 10.2px;" transform="translate(5,34.5)" y="0" x="0" id="text-entity-User-818c511a-4a32-5484-ba70-875d765a9175-attr-1-type" class="er entityLabel">String</text><rect height="21" width="70.9368896484375" y="24" x="69.22999572753906" class="er attributeBoxOdd"/><text style="dominant-baseline: middle; font-size: 10.2px;" transform="translate(74.22999572753906,34.5)" y="0" x="0" id="text-entity-User-818c511a-4a32-5484-ba70-875d765a9175-attr-1-name" class="er entityLabel">uid</text><rect height="21" width="17.640625" y="24" x="140.16688537597656" class="er attributeBoxOdd"/><text style="dominant-baseline: middle; font-size: 10.2px;" transform="translate(145.16688537597656,34.5)" y="0" x="0" id="text-entity-User-818c511a-4a32-5484-ba70-875d765a9175-attr-1-comment" class="er entityLabel">🗝️</text><rect height="21" width="69.22999572753906" y="45" x="0" class="er attributeBoxEven"/><text style="dominant-baseline: middle; font-size: 10.2px;" transform="translate(5,55.5)" y="0" x="0" id="text-entity-User-818c511a-4a32-5484-ba70-875d765a9175-attr-2-type" class="er entityLabel">String</text><rect height="21" width="70.9368896484375" y="45" x="69.22999572753906" class="er attributeBoxEven"/><text style="dominant-baseline: middle; font-size: 10.2px;" transform="translate(74.22999572753906,55.5)" y="0" x="0" id="text-entity-User-818c511a-4a32-5484-ba70-875d765a9175-attr-2-name" class="er entityLabel">email</text><rect height="21" width="17.640625" y="45" x="140.16688537597656" class="er attributeBoxEven"/><text style="dominant-baseline: middle; font-size: 10.2px;" transform="translate(145.16688537597656,55.5)" y="0" x="0" id="text-entity-User-818c511a-4a32-5484-ba70-875d765a9175-attr-2-comment" class="er entityLabel"/><rect height="21" width="69.22999572753906" y="66" x="0" class="er attributeBoxOdd"/><text style="dominant-baseline: middle; font-size: 10.2px;" transform="translate(5,76.5)" y="0" x="0" id="text-entity-User-818c511a-4a32-5484-ba70-875d765a9175-attr-3-type" class="er entityLabel">String</text><rect height="21" width="70.9368896484375" y="66" x="69.22999572753906" class="er attributeBoxOdd"/><text style="dominant-baseline: middle; font-size: 10.2px;" transform="translate(74.22999572753906,76.5)" y="0" x="0" id="text-entity-User-818c511a-4a32-5484-ba70-875d765a9175-attr-3-name" class="er entityLabel">password</text><rect height="21" width="17.640625" y="66" x="140.16688537597656" class="er attributeBoxOdd"/><text style="dominant-baseline: middle; font-size: 10.2px;" transform="translate(145.16688537597656,76.5)" y="0" x="0" id="text-entity-User-818c511a-4a32-5484-ba70-875d765a9175-attr-3-comment" class="er entityLabel"/><rect height="21" width="69.22999572753906" y="87" x="0" class="er attributeBoxEven"/><text style="dominant-baseline: middle; font-size: 10.2px;" transform="translate(5,97.5)" y="0" x="0" id="text-entity-User-818c511a-4a32-5484-ba70-875d765a9175-attr-4-type" class="er entityLabel">String</text><rect height="21" width="70.9368896484375" y="87" x="69.22999572753906" class="er attributeBoxEven"/><text style="dominant-baseline: middle; font-size: 10.2px;" transform="translate(74.22999572753906,97.5)" y="0" x="0" id="text-entity-User-818c511a-4a32-5484-ba70-875d765a9175-attr-4-name" class="er entityLabel">name</text><rect height="21" width="17.640625" y="87" x="140.16688537597656" class="er attributeBoxEven"/><text style="dominant-baseline: middle; font-size: 10.2px;" transform="translate(145.16688537597656,97.5)" y="0" x="0" id="text-entity-User-818c511a-4a32-5484-ba70-875d765a9175-attr-4-comment" class="er entityLabel">❓</text><rect height="21" width="69.22999572753906" y="108" x="0" class="er attributeBoxOdd"/><text style="dominant-baseline: middle; font-size: 10.2px;" transform="translate(5,118.5)" y="0" x="0" id="text-entity-User-818c511a-4a32-5484-ba70-875d765a9175-attr-5-type" class="er entityLabel">AccountType</text><rect height="21" width="70.9368896484375" y="108" x="69.22999572753906" class="er attributeBoxOdd"/><text style="dominant-baseline: middle; font-size: 10.2px;" transform="translate(74.22999572753906,118.5)" y="0" x="0" id="text-entity-User-818c511a-4a32-5484-ba70-875d765a9175-attr-5-name" class="er entityLabel">account_type</text><rect height="21" width="17.640625" y="108" x="140.16688537597656" class="er attributeBoxOdd"/><text style="dominant-baseline: middle; font-size: 10.2px;" transform="translate(145.16688537597656,118.5)" y="0" x="0" id="text-entity-User-818c511a-4a32-5484-ba70-875d765a9175-attr-5-comment" class="er entityLabel"/></g><g transform="translate(807.4969635009766,644 )" id="entity-RolesOnUser-bfb966ba-c7c5-5d8f-a738-c89df539e785"><rect height="108" width="158.55389404296875" y="0" x="0" class="er entityBox"/><text style="dominant-baseline: middle; text-anchor: middle; font-size: 12px;" transform="translate(79.27694702148438,12)" y="0" x="0" id="text-entity-RolesOnUser-bfb966ba-c7c5-5d8f-a738-c89df539e785" class="er entityLabel">RolesOnUser</text><rect height="21" width="54.113128662109375" y="24" x="0" class="er attributeBoxOdd"/><text style="dominant-baseline: middle; font-size: 10.2px;" transform="translate(5,34.5)" y="0" x="0" id="text-entity-RolesOnUser-bfb966ba-c7c5-5d8f-a738-c89df539e785-attr-1-type" class="er entityLabel">String</text><rect height="21" width="86.80014038085938" y="24" x="54.113128662109375" class="er attributeBoxOdd"/><text style="dominant-baseline: middle; font-size: 10.2px;" transform="translate(59.113128662109375,34.5)" y="0" x="0" id="text-entity-RolesOnUser-bfb966ba-c7c5-5d8f-a738-c89df539e785-attr-1-name" class="er entityLabel">user_uid</text><rect height="21" width="17.640625" y="24" x="140.91326904296875" class="er attributeBoxOdd"/><text style="dominant-baseline: middle; font-size: 10.2px;" transform="translate(145.91326904296875,34.5)" y="0" x="0" id="text-entity-RolesOnUser-bfb966ba-c7c5-5d8f-a738-c89df539e785-attr-1-comment" class="er entityLabel"/><rect height="21" width="54.113128662109375" y="45" x="0" class="er attributeBoxEven"/><text style="dominant-baseline: middle; font-size: 10.2px;" transform="translate(5,55.5)" y="0" x="0" id="text-entity-RolesOnUser-bfb966ba-c7c5-5d8f-a738-c89df539e785-attr-2-type" class="er entityLabel">String</text><rect height="21" width="86.80014038085938" y="45" x="54.113128662109375" class="er attributeBoxEven"/><text style="dominant-baseline: middle; font-size: 10.2px;" transform="translate(59.113128662109375,55.5)" y="0" x="0" id="text-entity-RolesOnUser-bfb966ba-c7c5-5d8f-a738-c89df539e785-attr-2-name" class="er entityLabel">role_uid</text><rect height="21" width="17.640625" y="45" x="140.91326904296875" class="er attributeBoxEven"/><text style="dominant-baseline: middle; font-size: 10.2px;" transform="translate(145.91326904296875,55.5)" y="0" x="0" id="text-entity-RolesOnUser-bfb966ba-c7c5-5d8f-a738-c89df539e785-attr-2-comment" class="er entityLabel"/><rect height="21" width="54.113128662109375" y="66" x="0" class="er attributeBoxOdd"/><text style="dominant-baseline: middle; font-size: 10.2px;" transform="translate(5,76.5)" y="0" x="0" id="text-entity-RolesOnUser-bfb966ba-c7c5-5d8f-a738-c89df539e785-attr-3-type" class="er entityLabel">DateTime</text><rect height="21" width="86.80014038085938" y="66" x="54.113128662109375" class="er attributeBoxOdd"/><text style="dominant-baseline: middle; font-size: 10.2px;" transform="translate(59.113128662109375,76.5)" y="0" x="0" id="text-entity-RolesOnUser-bfb966ba-c7c5-5d8f-a738-c89df539e785-attr-3-name" class="er entityLabel">assigned_at</text><rect height="21" width="17.640625" y="66" x="140.91326904296875" class="er attributeBoxOdd"/><text style="dominant-baseline: middle; font-size: 10.2px;" transform="translate(145.91326904296875,76.5)" y="0" x="0" id="text-entity-RolesOnUser-bfb966ba-c7c5-5d8f-a738-c89df539e785-attr-3-comment" class="er entityLabel"/><rect height="21" width="54.113128662109375" y="87" x="0" class="er attributeBoxEven"/><text style="dominant-baseline: middle; font-size: 10.2px;" transform="translate(5,97.5)" y="0" x="0" id="text-entity-RolesOnUser-bfb966ba-c7c5-5d8f-a738-c89df539e785-attr-4-type" class="er entityLabel">String</text><rect height="21" width="86.80014038085938" y="87" x="54.113128662109375" class="er attributeBoxEven"/><text style="dominant-baseline: middle; font-size: 10.2px;" transform="translate(59.113128662109375,97.5)" y="0" x="0" id="text-entity-RolesOnUser-bfb966ba-c7c5-5d8f-a738-c89df539e785-attr-4-name" class="er entityLabel">assigned_by_uid</text><rect height="21" width="17.640625" y="87" x="140.91326904296875" class="er attributeBoxEven"/><text style="dominant-baseline: middle; font-size: 10.2px;" transform="translate(145.91326904296875,97.5)" y="0" x="0" id="text-entity-RolesOnUser-bfb966ba-c7c5-5d8f-a738-c89df539e785-attr-4-comment" class="er entityLabel">❓</text></g><g transform="translate(772.9049835205078,457 )" id="entity-Role-8dbdbbc4-0419-5464-aae6-f142fb2ece67"><rect height="87" width="113.86892700195312" y="0" x="0" class="er entityBox"/><text style="dominant-baseline: middle; text-anchor: middle; font-size: 12px;" transform="translate(56.93446350097656,12)" y="0" x="0" id="text-entity-Role-8dbdbbc4-0419-5464-aae6-f142fb2ece67" class="er entityLabel">Role</text><rect height="21" width="36.947052001953125" y="24" x="0" class="er attributeBoxOdd"/><text style="dominant-baseline: middle; font-size: 10.2px;" transform="translate(5,34.5)" y="0" x="0" id="text-entity-Role-8dbdbbc4-0419-5464-aae6-f142fb2ece67-attr-1-type" class="er entityLabel">String</text><rect height="21" width="59.28125" y="24" x="36.947052001953125" class="er attributeBoxOdd"/><text style="dominant-baseline: middle; font-size: 10.2px;" transform="translate(41.947052001953125,34.5)" y="0" x="0" id="text-entity-Role-8dbdbbc4-0419-5464-aae6-f142fb2ece67-attr-1-name" class="er entityLabel">uid</text><rect height="21" width="17.640625" y="24" x="96.22830200195312" class="er attributeBoxOdd"/><text style="dominant-baseline: middle; font-size: 10.2px;" transform="translate(101.22830200195312,34.5)" y="0" x="0" id="text-entity-Role-8dbdbbc4-0419-5464-aae6-f142fb2ece67-attr-1-comment" class="er entityLabel">🗝️</text><rect height="21" width="36.947052001953125" y="45" x="0" class="er attributeBoxEven"/><text style="dominant-baseline: middle; font-size: 10.2px;" transform="translate(5,55.5)" y="0" x="0" id="text-entity-Role-8dbdbbc4-0419-5464-aae6-f142fb2ece67-attr-2-type" class="er entityLabel">String</text><rect height="21" width="59.28125" y="45" x="36.947052001953125" class="er attributeBoxEven"/><text style="dominant-baseline: middle; font-size: 10.2px;" transform="translate(41.947052001953125,55.5)" y="0" x="0" id="text-entity-Role-8dbdbbc4-0419-5464-aae6-f142fb2ece67-attr-2-name" class="er entityLabel">name</text><rect height="21" width="17.640625" y="45" x="96.22830200195312" class="er attributeBoxEven"/><text style="dominant-baseline: middle; font-size: 10.2px;" transform="translate(101.22830200195312,55.5)" y="0" x="0" id="text-entity-Role-8dbdbbc4-0419-5464-aae6-f142fb2ece67-attr-2-comment" class="er entityLabel"/><rect height="21" width="36.947052001953125" y="66" x="0" class="er attributeBoxOdd"/><text style="dominant-baseline: middle; font-size: 10.2px;" transform="translate(5,76.5)" y="0" x="0" id="text-entity-Role-8dbdbbc4-0419-5464-aae6-f142fb2ece67-attr-3-type" class="er entityLabel">String</text><rect height="21" width="59.28125" y="66" x="36.947052001953125" class="er attributeBoxOdd"/><text style="dominant-baseline: middle; font-size: 10.2px;" transform="translate(41.947052001953125,76.5)" y="0" x="0" id="text-entity-Role-8dbdbbc4-0419-5464-aae6-f142fb2ece67-attr-3-name" class="er entityLabel">description</text><rect height="21" width="17.640625" y="66" x="96.22830200195312" class="er attributeBoxOdd"/><text style="dominant-baseline: middle; font-size: 10.2px;" transform="translate(101.22830200195312,76.5)" y="0" x="0" id="text-entity-Role-8dbdbbc4-0419-5464-aae6-f142fb2ece67-attr-3-comment" class="er entityLabel"/></g><g transform="translate(371.2855529785156,249 )" id="entity-PermissionsOnRoles-d7e51ea9-3b7d-55ce-aeef-fd562e63ba8b"><rect height="108" width="158.55389404296875" y="0" x="0" class="er entityBox"/><text style="dominant-baseline: middle; text-anchor: middle; font-size: 12px;" transform="translate(79.27694702148438,12)" y="0" x="0" id="text-entity-PermissionsOnRoles-d7e51ea9-3b7d-55ce-aeef-fd562e63ba8b" class="er entityLabel">PermissionsOnRoles</text><rect height="21" width="54.113128662109375" y="24" x="0" class="er attributeBoxOdd"/><text style="dominant-baseline: middle; font-size: 10.2px;" transform="translate(5,34.5)" y="0" x="0" id="text-entity-PermissionsOnRoles-d7e51ea9-3b7d-55ce-aeef-fd562e63ba8b-attr-1-type" class="er entityLabel">String</text><rect height="21" width="86.80014038085938" y="24" x="54.113128662109375" class="er attributeBoxOdd"/><text style="dominant-baseline: middle; font-size: 10.2px;" transform="translate(59.113128662109375,34.5)" y="0" x="0" id="text-entity-PermissionsOnRoles-d7e51ea9-3b7d-55ce-aeef-fd562e63ba8b-attr-1-name" class="er entityLabel">role_uid</text><rect height="21" width="17.640625" y="24" x="140.91326904296875" class="er attributeBoxOdd"/><text style="dominant-baseline: middle; font-size: 10.2px;" transform="translate(145.91326904296875,34.5)" y="0" x="0" id="text-entity-PermissionsOnRoles-d7e51ea9-3b7d-55ce-aeef-fd562e63ba8b-attr-1-comment" class="er entityLabel"/><rect height="21" width="54.113128662109375" y="45" x="0" class="er attributeBoxEven"/><text style="dominant-baseline: middle; font-size: 10.2px;" transform="translate(5,55.5)" y="0" x="0" id="text-entity-PermissionsOnRoles-d7e51ea9-3b7d-55ce-aeef-fd562e63ba8b-attr-2-type" class="er entityLabel">String</text><rect height="21" width="86.80014038085938" y="45" x="54.113128662109375" class="er attributeBoxEven"/><text style="dominant-baseline: middle; font-size: 10.2px;" transform="translate(59.113128662109375,55.5)" y="0" x="0" id="text-entity-PermissionsOnRoles-d7e51ea9-3b7d-55ce-aeef-fd562e63ba8b-attr-2-name" class="er entityLabel">permission_id</text><rect height="21" width="17.640625" y="45" x="140.91326904296875" class="er attributeBoxEven"/><text style="dominant-baseline: middle; font-size: 10.2px;" transform="translate(145.91326904296875,55.5)" y="0" x="0" id="text-entity-PermissionsOnRoles-d7e51ea9-3b7d-55ce-aeef-fd562e63ba8b-attr-2-comment" class="er entityLabel"/><rect height="21" width="54.113128662109375" y="66" x="0" class="er attributeBoxOdd"/><text style="dominant-baseline: middle; font-size: 10.2px;" transform="translate(5,76.5)" y="0" x="0" id="text-entity-PermissionsOnRoles-d7e51ea9-3b7d-55ce-aeef-fd562e63ba8b-attr-3-type" class="er entityLabel">DateTime</text><rect height="21" width="86.80014038085938" y="66" x="54.113128662109375" class="er attributeBoxOdd"/><text style="dominant-baseline: middle; font-size: 10.2px;" transform="translate(59.113128662109375,76.5)" y="0" x="0" id="text-entity-PermissionsOnRoles-d7e51ea9-3b7d-55ce-aeef-fd562e63ba8b-attr-3-name" class="er entityLabel">assigned_at</text><rect height="21" width="17.640625" y="66" x="140.91326904296875" class="er attributeBoxOdd"/><text style="dominant-baseline: middle; font-size: 10.2px;" transform="translate(145.91326904296875,76.5)" y="0" x="0" id="text-entity-PermissionsOnRoles-d7e51ea9-3b7d-55ce-aeef-fd562e63ba8b-attr-3-comment" class="er entityLabel"/><rect height="21" width="54.113128662109375" y="87" x="0" class="er attributeBoxEven"/><text style="dominant-baseline: middle; font-size: 10.2px;" transform="translate(5,97.5)" y="0" x="0" id="text-entity-PermissionsOnRoles-d7e51ea9-3b7d-55ce-aeef-fd562e63ba8b-attr-4-type" class="er entityLabel">String</text><rect height="21" width="86.80014038085938" y="87" x="54.113128662109375" class="er attributeBoxEven"/><text style="dominant-baseline: middle; font-size: 10.2px;" transform="translate(59.113128662109375,97.5)" y="0" x="0" id="text-entity-PermissionsOnRoles-d7e51ea9-3b7d-55ce-aeef-fd562e63ba8b-attr-4-name" class="er entityLabel">assigned_by_uid</text><rect height="21" width="17.640625" y="87" x="140.91326904296875" class="er attributeBoxEven"/><text style="dominant-baseline: middle; font-size: 10.2px;" transform="translate(145.91326904296875,97.5)" y="0" x="0" id="text-entity-PermissionsOnRoles-d7e51ea9-3b7d-55ce-aeef-fd562e63ba8b-attr-4-comment" class="er entityLabel">❓</text></g><g transform="translate(383.2665100097656,467.5 )" id="entity-Permission-48655fad-d38f-55ef-b80b-a2e5778dc661"><rect height="66" width="113.86892700195312" y="0" x="0" class="er entityBox"/><text style="dominant-baseline: middle; text-anchor: middle; font-size: 12px;" transform="translate(56.93446350097656,12)" y="0" x="0" id="text-entity-Permission-48655fad-d38f-55ef-b80b-a2e5778dc661" class="er entityLabel">Permission</text><rect height="21" width="36.947052001953125" y="24" x="0" class="er attributeBoxOdd"/><text style="dominant-baseline: middle; font-size: 10.2px;" transform="translate(5,34.5)" y="0" x="0" id="text-entity-Permission-48655fad-d38f-55ef-b80b-a2e5778dc661-attr-1-type" class="er entityLabel">String</text><rect height="21" width="59.28125" y="24" x="36.947052001953125" class="er attributeBoxOdd"/><text style="dominant-baseline: middle; font-size: 10.2px;" transform="translate(41.947052001953125,34.5)" y="0" x="0" id="text-entity-Permission-48655fad-d38f-55ef-b80b-a2e5778dc661-attr-1-name" class="er entityLabel">id</text><rect height="21" width="17.640625" y="24" x="96.22830200195312" class="er attributeBoxOdd"/><text style="dominant-baseline: middle; font-size: 10.2px;" transform="translate(101.22830200195312,34.5)" y="0" x="0" id="text-entity-Permission-48655fad-d38f-55ef-b80b-a2e5778dc661-attr-1-comment" class="er entityLabel">🗝️</text><rect height="21" width="36.947052001953125" y="45" x="0" class="er attributeBoxEven"/><text style="dominant-baseline: middle; font-size: 10.2px;" transform="translate(5,55.5)" y="0" x="0" id="text-entity-Permission-48655fad-d38f-55ef-b80b-a2e5778dc661-attr-2-type" class="er entityLabel">String</text><rect height="21" width="59.28125" y="45" x="36.947052001953125" class="er attributeBoxEven"/><text style="dominant-baseline: middle; font-size: 10.2px;" transform="translate(41.947052001953125,55.5)" y="0" x="0" id="text-entity-Permission-48655fad-d38f-55ef-b80b-a2e5778dc661-attr-2-name" class="er entityLabel">description</text><rect height="21" width="17.640625" y="45" x="96.22830200195312" class="er attributeBoxEven"/><text style="dominant-baseline: middle; font-size: 10.2px;" transform="translate(101.22830200195312,55.5)" y="0" x="0" id="text-entity-Permission-48655fad-d38f-55ef-b80b-a2e5778dc661-attr-2-comment" class="er entityLabel"/></g><rect height="14" width="105.0625" y="152.75091552734375" x="193.74163818359375" class="er relationshipLabelBox"/><text style="text-anchor: middle; dominant-baseline: middle; font-size: 12px;" y="159.75091552734375" x="246.27288818359375" id="rel1" class="er relationshipLabel">enum:account_type</text><rect height="14" width="180.75" y="185.16134643554688" x="317.71380615234375" class="er relationshipLabelBox"/><text style="text-anchor: middle; dominant-baseline: middle; font-size: 12px;" y="192.16134643554688" x="408.08880615234375" id="rel2" class="er relationshipLabel">PermissionsOnRoles_assignedBy</text><rect height="14" width="140.75" y="549.1537475585938" x="199.8548583984375" class="er relationshipLabelBox"/><text style="text-anchor: middle; dominant-baseline: middle; font-size: 12px;" y="556.1537475585938" x="270.2298583984375" id="rel3" class="er relationshipLabel">RolesOnUser_assignedBy</text><rect height="14" width="26.015625" y="444.3876037597656" x="616.8316650390625" class="er relationshipLabelBox"/><text style="text-anchor: middle; dominant-baseline: middle; font-size: 12px;" y="451.3876037597656" x="629.8394775390625" id="rel4" class="er relationshipLabel">roles</text><rect height="13.999984741210938" width="23.34765625" y="244.61690521240234" x="967.4013061523438" class="er relationshipLabelBox"/><text style="text-anchor: middle; dominant-baseline: middle; font-size: 12px;" y="251.6168975830078" x="979.0751342773438" id="rel5" class="er relationshipLabel">user</text><rect height="14" width="20.3359375" y="565.1509399414062" x="999.5552978515625" class="er relationshipLabelBox"/><text style="text-anchor: middle; dominant-baseline: middle; font-size: 12px;" y="572.1509399414062" x="1009.7232666015625" id="rel6" class="er relationshipLabel">role</text><rect height="14" width="62.046875" y="229.9077606201172" x="1130.8328857421875" class="er relationshipLabelBox"/><text style="text-anchor: middle; dominant-baseline: middle; font-size: 12px;" y="236.9077606201172" x="1161.8563232421875" id="rel7" class="er relationshipLabel">assignedBy</text><rect height="14" width="64.03125" y="362.4126892089844" x="673.1683349609375" class="er relationshipLabelBox"/><text style="text-anchor: middle; dominant-baseline: middle; font-size: 12px;" y="369.4126892089844" x="705.1839599609375" id="rel8" class="er relationshipLabel">permissions</text><rect height="14" width="50.015625" y="589.2650756835938" x="810.0414428710938" class="er relationshipLabelBox"/><text style="text-anchor: middle; dominant-baseline: middle; font-size: 12px;" y="596.2650756835938" x="835.0492553710938" id="rel9" class="er relationshipLabel">members</text><rect height="14" width="20.3359375" y="372.2888488769531" x="661.1140747070312" class="er relationshipLabelBox"/><text style="text-anchor: middle; dominant-baseline: middle; font-size: 12px;" y="379.2888488769531" x="671.2820434570312" id="rel10" class="er relationshipLabel">role</text><rect height="14" width="58.03125" y="405.81060791015625" x="362.72296142578125" class="er relationshipLabelBox"/><text style="text-anchor: middle; dominant-baseline: middle; font-size: 12px;" y="412.81060791015625" x="391.73858642578125" id="rel11" class="er relationshipLabel">permission</text><rect height="14" width="62.046875" y="192.22314453125" x="458.7466735839844" class="er relationshipLabelBox"/><text style="text-anchor: middle; dominant-baseline: middle; font-size: 12px;" y="199.22314453125" x="489.7701110839844" id="rel12" class="er relationshipLabel">assignedBy</text><rect height="14" width="26.015625" y="406.3416442871094" x="458.95458984375" class="er relationshipLabelBox"/><text style="text-anchor: middle; dominant-baseline: middle; font-size: 12px;" y="413.3416442871094" x="471.96240234375" id="rel13" class="er relationshipLabel">roles</text></svg>